<svg width="22" height="22" viewBox="0 0 22 22" fill="none" xmlns="http://www.w3.org/2000/svg">
<path d="M14.6667 7.33325C16.1254 7.33325 17.5243 7.91271 18.5558 8.94416C19.5872 9.97561 20.1667 11.3746 20.1667 12.8333V19.2499H16.5V12.8333C16.5 12.347 16.3069 11.8807 15.963 11.5369C15.6192 11.1931 15.1529 10.9999 14.6667 10.9999C14.1805 10.9999 13.7141 11.1931 13.3703 11.5369C13.0265 11.8807 12.8334 12.347 12.8334 12.8333V19.2499H9.16669V12.8333C9.16669 11.3746 9.74615 9.97561 10.7776 8.94416C11.8091 7.91271 13.208 7.33325 14.6667 7.33325Z" stroke="#ABB2BF" stroke-width="1.83333" stroke-linecap="round" stroke-linejoin="round"/>
<path d="M5.49998 8.25H1.83331V19.25H5.49998V8.25Z" stroke="#ABB2BF" stroke-width="1.83333" stroke-linecap="round" stroke-linejoin="round"/>
<path d="M3.66665 5.49992C4.67917 5.49992 5.49998 4.67911 5.49998 3.66659C5.49998 2.65406 4.67917 1.83325 3.66665 1.83325C2.65412 1.83325 1.83331 2.65406 1.83331 3.66659C1.83331 4.67911 2.65412 5.49992 3.66665 5.49992Z" stroke="#ABB2BF" stroke-width="1.83333" stroke-linecap="round" stroke-linejoin="round"/>
</svg>
