<svg width="22" height="22" viewBox="0 0 22 22" fill="none" xmlns="http://www.w3.org/2000/svg">
<path d="M21.0834 2.74982C20.2055 3.36901 19.2336 3.84259 18.205 4.15232C17.6529 3.51754 16.9192 3.06762 16.1031 2.86342C15.287 2.65922 14.4279 2.71058 13.6419 3.01057C12.856 3.31055 12.1811 3.84469 11.7086 4.54073C11.2361 5.23676 10.9887 6.06113 11 6.90232V7.81898C9.3891 7.86076 7.79285 7.50348 6.35344 6.77898C4.91404 6.05447 3.67614 4.98523 2.75002 3.66648C2.75002 3.66648 -0.916646 11.9165 7.33335 15.5832C5.4455 16.8646 3.19658 17.5072 0.916687 17.4165C9.16669 21.9998 19.25 17.4165 19.25 6.87482C19.2492 6.61948 19.2246 6.36478 19.1767 6.11399C20.1122 5.19135 20.7724 4.02647 21.0834 2.74982Z" stroke="#ABB2BF" stroke-width="1.83333" stroke-linecap="round" stroke-linejoin="round"/>
</svg>
